<svg width="429" height="258" viewBox="0 0 429 258" fill="none" xmlns="http://www.w3.org/2000/svg">
<path d="M202.262 55.2C207.862 55.2 212.312 56.8 215.612 60C219.012 63.2 220.712 67.85 220.712 73.95C220.712 79.95 218.162 87.3 213.062 96C207.962 104.7 201.312 112.3 193.112 118.8C185.012 125.2 177.262 128.4 169.862 128.4C157.762 128.4 151.712 121.65 151.712 108.15C151.712 100.25 154.212 92.2 159.212 84C164.312 75.7 170.812 68.85 178.712 63.45C186.712 57.95 194.562 55.2 202.262 55.2ZM192.062 112.2C197.062 107.4 201.062 101.65 204.062 94.95C207.162 88.25 208.712 82.4 208.712 77.4C208.712 72.3 207.562 68.45 205.262 65.85C202.962 63.15 199.812 61.8 195.812 61.8C188.812 61.8 181.812 66.35 174.812 75.45C167.912 84.45 164.462 93.5 164.462 102.6C164.462 107.5 165.612 111.55 167.912 114.75C170.212 117.85 173.562 119.4 177.962 119.4C182.462 119.4 187.162 117 192.062 112.2ZM237.834 101.4C233.934 101.4 230.684 100.25 228.084 97.95C225.584 95.55 224.334 92.45 224.334 88.65C224.334 83.25 226.534 77.85 230.934 72.45C235.334 66.95 240.534 62.55 246.534 59.25C252.634 55.95 258.184 54.3 263.184 54.3C276.384 54.3 282.984 60.1 282.984 71.7C282.984 79.4 281.084 86.85 277.284 94.05C273.484 101.25 268.634 107.3 262.734 112.2C256.934 117.1 250.534 121 243.534 123.9C236.634 126.8 230.034 128.25 223.734 128.25H222.384L221.634 122.25C236.034 118.95 246.134 115.1 251.934 110.7C254.634 108.7 257.484 105.95 260.484 102.45C263.484 98.95 265.984 94.9 267.984 90.3C258.184 97.7 248.134 101.4 237.834 101.4ZM260.184 61.5C254.884 61.5 249.534 63.7 244.134 68.1C238.834 72.5 236.184 77.15 236.184 82.05C236.184 84.85 237.184 87.05 239.184 88.65C241.284 90.25 243.934 91.05 247.134 91.05C252.634 91.05 257.934 89.2 263.034 85.5C268.234 81.8 270.834 77.3 270.834 72C270.834 68.9 269.784 66.4 267.684 64.5C265.684 62.5 263.184 61.5 260.184 61.5Z" fill="black"/>
<path d="M61.5564 205.349L68.6564 205.249V209.349C67.8564 209.216 66.9231 209.149 65.8564 209.149C64.7898 209.149 63.5898 209.216 62.2564 209.349C62.2564 214.483 59.7898 219.683 54.8564 224.949C49.9231 230.216 43.9564 234.483 36.9564 237.749C30.0231 241.083 23.5564 242.749 17.5564 242.749C14.4231 242.749 11.8564 241.949 9.85642 240.349C7.92309 238.749 6.95642 236.649 6.95642 234.049C6.95642 230.183 9.52309 226.149 14.6564 221.949C19.7898 217.749 25.7898 214.283 32.6564 211.549C39.5231 208.816 45.7231 207.216 51.2564 206.749C50.5898 205.749 49.5564 204.883 48.1564 204.149C46.7564 203.416 43.8898 202.283 39.5564 200.749C35.2231 199.149 32.1564 197.416 30.3564 195.549C28.5564 193.616 27.6564 190.916 27.6564 187.449C27.6564 183.983 29.5231 180.016 33.2564 175.549C36.9898 171.083 41.3898 167.349 46.4564 164.349C51.5898 161.283 56.0898 159.749 59.9564 159.749C61.6898 159.749 63.1231 160.383 64.2564 161.649C65.3898 162.849 65.9564 164.349 65.9564 166.149C65.9564 169.083 64.1898 172.783 60.6564 177.249C57.1231 181.649 53.1898 185.016 48.8564 187.349L46.4564 183.949C49.0564 182.616 51.3231 180.549 53.2564 177.749C55.2564 174.883 56.2564 172.416 56.2564 170.349C56.2564 168.283 55.1564 167.249 52.9564 167.249C49.8231 167.249 46.2231 169.216 42.1564 173.149C38.1564 177.016 36.1564 180.649 36.1564 184.049C36.1564 186.383 36.7564 188.216 37.9564 189.549C39.1564 190.883 42.1898 192.549 47.0564 194.549C51.9231 196.483 55.3898 198.216 57.4564 199.749C59.5231 201.216 60.8898 203.083 61.5564 205.349ZM16.9564 231.449C16.9564 234.649 19.5564 236.249 24.7564 236.249C27.6231 236.249 31.3231 235.183 35.8564 233.049C40.4564 230.983 44.4898 228.049 47.9564 224.249C51.4898 220.516 53.2564 216.683 53.2564 212.749C53.2564 212.283 53.1564 211.583 52.9564 210.649C43.8231 211.516 35.5231 214.083 28.0564 218.349C20.6564 222.616 16.9564 226.983 16.9564 231.449ZM100.652 211.649L102.952 213.449C100.885 216.316 98.0517 218.716 94.4517 220.649C90.8517 222.516 87.3517 223.449 83.9517 223.449C80.5517 223.449 77.8184 222.449 75.7517 220.449C73.6851 218.449 72.6517 215.816 72.6517 212.549C72.6517 206.416 75.8851 200.383 82.3517 194.449C88.8851 188.516 95.4851 185.549 102.152 185.549C106.552 185.549 108.752 187.283 108.752 190.749C108.752 194.349 106.418 197.983 101.752 201.649C97.1517 205.316 90.6517 208.649 82.2517 211.649C82.8517 213.183 83.7851 214.383 85.0517 215.249C86.3184 216.116 87.6184 216.549 88.9517 216.549C91.8184 216.549 95.7184 214.916 100.652 211.649ZM81.7517 208.649C87.1517 206.783 91.7851 204.449 95.6517 201.649C99.5184 198.849 101.452 196.283 101.452 193.949C101.452 193.083 101.118 192.316 100.452 191.649C99.7851 190.983 99.0184 190.649 98.1517 190.649C95.0184 190.649 91.6184 192.616 87.9517 196.549C84.3517 200.416 82.2851 204.449 81.7517 208.649ZM125.638 205.049C130.704 197.449 135.104 192.283 138.838 189.549C142.571 186.749 145.838 185.349 148.638 185.349C151.438 185.349 153.604 186.216 155.138 187.949C156.671 189.616 157.438 191.749 157.438 194.349C157.438 201.549 154.838 208.216 149.638 214.349C144.504 220.416 138.704 223.449 132.238 223.449C129.371 223.449 127.104 222.949 125.438 221.949L127.838 217.649C131.304 218.116 133.471 218.349 134.338 218.349C137.938 218.349 141.304 216.249 144.438 212.049C147.571 207.849 149.138 203.549 149.138 199.149C149.138 197.483 148.638 196.116 147.638 195.049C146.704 193.916 145.471 193.349 143.938 193.349C140.271 193.349 136.104 196.583 131.438 203.049C126.838 209.516 122.504 217.516 118.438 227.049C114.438 236.649 110.938 246.849 107.938 257.649L101.938 255.549C102.071 255.149 103.338 251.683 105.738 245.149C108.071 238.683 110.371 232.249 112.638 225.849C118.904 208.249 122.038 198.616 122.038 196.949C122.038 192.683 121.171 188.816 119.438 185.349L124.438 182.849C126.504 185.716 127.538 188.749 127.538 191.949C127.538 195.083 126.904 199.449 125.638 205.049ZM183.649 212.249L185.849 214.749C184.183 217.349 182.149 219.383 179.749 220.849C177.416 222.316 175.049 223.049 172.649 223.049C170.249 223.049 168.349 222.383 166.949 221.049C165.549 219.649 164.849 217.749 164.849 215.349C164.849 209.749 166.949 202.016 171.149 192.149C167.749 192.683 164.349 193.483 160.949 194.549L160.249 190.649L160.149 190.549C163.483 189.149 167.849 188.016 173.249 187.149C173.783 186.149 174.983 183.716 176.849 179.849C180.583 172.183 183.249 167.216 184.849 164.949L189.149 166.649C188.483 168.116 187.316 170.583 185.649 174.049C183.983 177.449 182.116 181.316 180.049 185.649C183.049 185.449 185.416 185.349 187.149 185.349C188.883 185.349 190.216 185.616 191.149 186.149V190.449C190.216 190.249 188.849 190.149 187.049 190.149C185.316 190.149 182.183 190.449 177.649 191.049C173.716 199.849 171.749 206.249 171.749 210.249C171.749 211.783 172.216 213.049 173.149 214.049C174.149 215.049 175.449 215.549 177.049 215.549C178.716 215.549 180.916 214.449 183.649 212.249ZM221.257 211.649L223.557 213.449C221.491 216.316 218.657 218.716 215.057 220.649C211.457 222.516 207.957 223.449 204.557 223.449C201.157 223.449 198.424 222.449 196.357 220.449C194.291 218.449 193.257 215.816 193.257 212.549C193.257 206.416 196.491 200.383 202.957 194.449C209.491 188.516 216.091 185.549 222.757 185.549C227.157 185.549 229.357 187.283 229.357 190.749C229.357 194.349 227.024 197.983 222.357 201.649C217.757 205.316 211.257 208.649 202.857 211.649C203.457 213.183 204.391 214.383 205.657 215.249C206.924 216.116 208.224 216.549 209.557 216.549C212.424 216.549 216.324 214.916 221.257 211.649ZM202.357 208.649C207.757 206.783 212.391 204.449 216.257 201.649C220.124 198.849 222.057 196.283 222.057 193.949C222.057 193.083 221.724 192.316 221.057 191.649C220.391 190.983 219.624 190.649 218.757 190.649C215.624 190.649 212.224 192.616 208.557 196.549C204.957 200.416 202.891 204.449 202.357 208.649ZM299.043 210.449L301.143 212.449C297.343 219.249 292.976 222.649 288.043 222.649C286.043 222.649 284.476 222.116 283.343 221.049C282.276 219.916 281.743 218.449 281.743 216.649C281.743 214.783 282.843 211.616 285.043 207.149C287.243 202.683 288.41 199.283 288.543 196.949C288.61 195.883 288.276 195.016 287.543 194.349C286.876 193.683 285.943 193.349 284.743 193.349C283.543 193.349 282.31 193.649 281.043 194.249C279.843 194.783 278.643 195.683 277.443 196.949C276.31 198.216 275.243 199.449 274.243 200.649C273.31 201.849 272.243 203.549 271.043 205.749C269.91 207.949 268.943 209.783 268.143 211.249C266.743 213.983 264.743 218.083 262.143 223.549L256.143 221.449C256.143 221.249 257.243 217.483 259.443 210.149C261.643 202.816 262.743 198.449 262.743 197.049C262.743 195.649 262.41 194.649 261.743 194.049C261.076 193.383 260.243 193.049 259.243 193.049C256.243 193.049 252.076 196.783 246.743 204.249C241.476 211.716 238.11 218.083 236.643 223.349L230.943 221.449C231.276 217.916 232.843 211.583 235.643 202.449C238.443 193.249 240.81 186.983 242.743 183.649L247.243 185.249C245.176 189.849 243.743 193.749 242.943 196.949C242.143 200.083 241.443 203.449 240.843 207.049C246.576 198.849 251.376 193.116 255.243 189.849C259.11 186.516 262.61 184.849 265.743 184.849C269.143 184.849 270.843 186.549 270.843 189.949C270.843 191.283 270.243 193.916 269.043 197.849C267.91 201.783 267.01 204.883 266.343 207.149C275.543 192.349 283.776 184.949 291.043 184.949C292.843 184.949 294.276 185.516 295.343 186.649C296.41 187.716 296.943 189.349 296.943 191.549C296.943 193.683 295.676 197.249 293.143 202.249C290.676 207.249 289.443 210.416 289.443 211.749C289.443 213.016 289.71 213.949 290.243 214.549C290.776 215.149 291.443 215.449 292.243 215.449C293.976 215.449 296.243 213.783 299.043 210.449ZM321.111 195.949C324.311 192.683 327.111 190.449 329.511 189.249C331.978 187.983 334.278 187.349 336.411 187.349C338.611 187.349 340.411 188.116 341.811 189.649C343.278 191.116 344.011 193.049 344.011 195.449C344.011 201.649 341.411 208.183 336.211 215.049C331.011 221.849 325.411 225.249 319.411 225.249C317.611 225.249 315.911 224.916 314.311 224.249L316.711 219.849C317.778 220.116 318.611 220.249 319.211 220.249C323.278 220.249 326.978 217.983 330.311 213.449C333.644 208.916 335.311 204.449 335.311 200.049C335.311 198.649 334.844 197.516 333.911 196.649C333.044 195.716 331.911 195.249 330.511 195.249C327.444 195.249 323.844 197.716 319.711 202.649C315.644 207.583 312.078 214.016 309.011 221.949L302.911 219.449C304.911 209.249 308.911 196.816 314.911 182.149C320.911 167.483 325.911 157.116 329.911 151.049L335.011 152.849C330.611 161.049 325.911 171.216 320.911 183.349C315.978 195.483 313.078 203.716 312.211 208.049C314.944 203.249 317.911 199.216 321.111 195.949ZM374.578 211.649L376.878 213.449C374.811 216.316 371.978 218.716 368.378 220.649C364.778 222.516 361.278 223.449 357.878 223.449C354.478 223.449 351.744 222.449 349.678 220.449C347.611 218.449 346.578 215.816 346.578 212.549C346.578 206.416 349.811 200.383 356.278 194.449C362.811 188.516 369.411 185.549 376.078 185.549C380.478 185.549 382.678 187.283 382.678 190.749C382.678 194.349 380.344 197.983 375.678 201.649C371.078 205.316 364.578 208.649 356.178 211.649C356.778 213.183 357.711 214.383 358.978 215.249C360.244 216.116 361.544 216.549 362.878 216.549C365.744 216.549 369.644 214.916 374.578 211.649ZM355.678 208.649C361.078 206.783 365.711 204.449 369.578 201.649C373.444 198.849 375.378 196.283 375.378 193.949C375.378 193.083 375.044 192.316 374.378 191.649C373.711 190.983 372.944 190.649 372.078 190.649C368.944 190.649 365.544 192.616 361.878 196.549C358.278 200.416 356.211 204.449 355.678 208.649ZM412.663 188.049C414.33 188.049 415.697 188.616 416.763 189.749C417.83 190.883 418.363 192.349 418.363 194.149C418.363 197.749 416.297 201.549 412.163 205.549L409.763 203.649C410.697 201.583 411.163 200.083 411.163 199.149C411.163 197.349 410.163 196.449 408.163 196.449C406.163 196.449 404.263 197.716 402.463 200.249C400.663 202.783 398.53 206.716 396.063 212.049C393.663 217.316 391.83 221.049 390.563 223.249L384.863 220.749C388.53 212.416 390.63 207.516 391.163 206.049C392.963 200.849 393.863 194.249 393.863 186.249L399.463 184.749C399.263 189.083 398.963 192.449 398.563 194.849C398.163 197.183 397.197 201.016 395.663 206.349C402.397 194.149 408.063 188.049 412.663 188.049Z" fill="black"/>
</svg>
