<svg width="254" height="76" viewBox="0 0 254 76" fill="none" xmlns="http://www.w3.org/2000/svg">
<path d="M17.8563 21.2546C22.0563 16.3546 27.6063 12.0546 34.5063 8.35459C41.4063 4.55459 47.1563 2.65459 51.7563 2.65459C56.4563 2.65459 60.1563 3.90459 62.8563 6.40459C65.5563 8.90459 66.9063 12.4546 66.9063 17.0546C66.9063 21.6546 65.0563 25.8546 61.3563 29.6546C57.6563 33.3546 50.2563 38.0546 39.1563 43.7546C28.0563 49.3546 17.7563 56.2546 8.25627 64.4546C21.9563 62.3546 34.7063 61.3046 46.5063 61.3046C49.2063 61.3046 51.3563 61.4046 52.9563 61.6046V71.0546C50.7563 71.4546 49.2563 71.6546 48.4563 71.6546C47.7563 71.5546 46.5563 71.5546 44.8563 71.6546C43.1563 71.7546 39.8563 71.9546 34.9563 72.2546C30.0563 72.4546 25.0063 72.8046 19.8063 73.3046C14.7063 73.8046 11.2063 74.2046 9.30627 74.5046C7.50627 74.7046 6.40627 74.8046 6.00627 74.8046C4.40627 74.8046 3.00627 73.8046 1.80627 71.8046C0.606274 69.7046 0.00627428 67.7046 0.00627428 65.8046C0.806274 62.7046 4.75627 58.2046 11.8563 52.3046C19.0563 46.4046 28.2563 40.5546 39.4563 34.7546C42.7563 33.0546 45.8063 30.8546 48.6063 28.1546C51.4063 25.4546 52.8063 22.9046 52.8063 20.5046C52.8063 15.9046 50.3563 13.6046 45.4563 13.6046C38.9563 13.6046 30.6063 17.8046 20.4063 26.2046L17.8563 21.2546ZM113.719 2.65459C119.319 2.65459 123.769 4.25459 127.069 7.45459C130.469 10.6546 132.169 15.3046 132.169 21.4046C132.169 27.4046 129.619 34.7546 124.519 43.4546C119.419 52.1546 112.769 59.7546 104.569 66.2546C96.4692 72.6546 88.7192 75.8546 81.3192 75.8546C69.2192 75.8546 63.1692 69.1046 63.1692 55.6046C63.1692 47.7046 65.6692 39.6546 70.6692 31.4546C75.7692 23.1546 82.2692 16.3046 90.1692 10.9046C98.1692 5.40459 106.019 2.65459 113.719 2.65459ZM103.519 59.6546C108.519 54.8546 112.519 49.1046 115.519 42.4046C118.619 35.7046 120.169 29.8546 120.169 24.8546C120.169 19.7546 119.019 15.9046 116.719 13.3046C114.419 10.6046 111.269 9.25459 107.269 9.25459C100.269 9.25459 93.2692 13.8046 86.2692 22.9046C79.3692 31.9046 75.9192 40.9546 75.9192 50.0546C75.9192 54.9546 77.0692 59.0046 79.3692 62.2046C81.6692 65.3046 85.0192 66.8546 89.4192 66.8546C93.9192 66.8546 98.6192 64.4546 103.519 59.6546ZM147.641 21.2546C151.841 16.3546 157.391 12.0546 164.291 8.35459C171.191 4.55459 176.941 2.65459 181.541 2.65459C186.241 2.65459 189.941 3.90459 192.641 6.40459C195.341 8.90459 196.691 12.4546 196.691 17.0546C196.691 21.6546 194.841 25.8546 191.141 29.6546C187.441 33.3546 180.041 38.0546 168.941 43.7546C157.841 49.3546 147.541 56.2546 138.041 64.4546C151.741 62.3546 164.491 61.3046 176.291 61.3046C178.991 61.3046 181.141 61.4046 182.741 61.6046V71.0546C180.541 71.4546 179.041 71.6546 178.241 71.6546C177.541 71.5546 176.341 71.5546 174.641 71.6546C172.941 71.7546 169.641 71.9546 164.741 72.2546C159.841 72.4546 154.791 72.8046 149.591 73.3046C144.491 73.8046 140.991 74.2046 139.091 74.5046C137.291 74.7046 136.191 74.8046 135.791 74.8046C134.191 74.8046 132.791 73.8046 131.591 71.8046C130.391 69.7046 129.791 67.7046 129.791 65.8046C130.591 62.7046 134.541 58.2046 141.641 52.3046C148.841 46.4046 158.041 40.5546 169.241 34.7546C172.541 33.0546 175.591 30.8546 178.391 28.1546C181.191 25.4546 182.591 22.9046 182.591 20.5046C182.591 15.9046 180.141 13.6046 175.241 13.6046C168.741 13.6046 160.391 17.8046 150.191 26.2046L147.641 21.2546ZM218.154 70.4546C218.154 65.1546 219.604 58.7546 222.504 51.2546C216.204 51.7546 211.054 52.4046 207.054 53.2046C203.154 54.0046 201.054 54.4046 200.754 54.4046C198.454 54.4046 196.654 53.5546 195.354 51.8546C194.154 50.1546 193.554 48.6046 193.554 47.2046C193.554 45.7046 193.604 44.7546 193.704 44.3546C194.304 41.1546 198.504 36.0046 206.304 28.9046C214.104 21.7046 222.304 15.2046 230.904 9.40459C239.504 3.60459 245.154 0.704591 247.854 0.704591C249.554 0.704591 250.904 1.25459 251.904 2.35459C253.004 3.45459 253.554 4.90459 253.554 6.70458C253.554 8.40459 252.604 10.8046 250.704 13.9046C248.804 16.9046 247.154 19.7046 245.754 22.3046C244.454 24.9046 243.354 27.2046 242.454 29.2046C240.654 33.3046 239.204 36.8546 238.104 39.8546C241.504 39.6546 244.354 39.5546 246.654 39.5546C248.954 39.5546 250.904 39.6546 252.504 39.8546C251.204 46.3546 250.354 49.7546 249.954 50.0546L233.754 50.3546C231.154 55.0546 229.054 62.9046 227.454 73.9046L218.754 75.2546C218.354 73.9546 218.154 72.3546 218.154 70.4546ZM226.254 40.9046C228.554 34.7046 233.254 25.0046 240.354 11.8046C234.354 14.9046 227.354 19.9546 219.354 26.9546C211.354 33.9546 205.904 39.7546 203.004 44.3546C213.204 42.5546 220.954 41.4046 226.254 40.9046Z" fill="black"/>
</svg>
